<?xml version="1.0" encoding="utf-8"?>
<!-- Generator: Adobe Illustrator 24.0.1, SVG Export Plug-In . SVG Version: 6.00 Build 0)  -->
<svg version="1.1" id="Layer_1" xmlns="http://www.w3.org/2000/svg" xmlns:xlink="http://www.w3.org/1999/xlink" x="0px" y="0px"
	 viewBox="0 0 380 380" style="enable-background:new 0 0 380 380;" xml:space="preserve">
<style type="text/css">
	.st0{fill:#E24329;}
	.st1{fill:#FC6D26;}
	.st2{fill:#FCA326;}
</style>
<script  xmlns=""></script>
<g id="LOGO">
	<path class="st0" d="M359.7,154.8l-0.5-1.3L311.4,28.8c-1-2.4-2.7-4.5-4.9-5.9c-4.6-2.8-10.4-2.5-14.6,0.8c-2,1.7-3.5,3.9-4.2,6.4
		l-32.3,98.7H124.7L92.5,30.1c-0.7-2.5-2.2-4.8-4.2-6.5c-4.2-3.3-10.1-3.6-14.6-0.8c-2.2,1.4-3.9,3.5-4.9,5.9L20.8,153.4l-0.5,1.3
		c-14.1,36.9-2.1,78.7,29.4,102.5l0.2,0.1l0.4,0.3l72.8,54.5l36,27.2l21.9,16.6c5.3,4,12.6,4,17.8,0l21.9-16.6l36-27.2l73.2-54.8
		l0.2-0.1C361.7,233.4,373.7,191.6,359.7,154.8z"/>
	<path class="st1" d="M359.7,154.8l-0.5-1.3c-23.3,4.8-45.2,14.6-64.2,28.9L190,261.7c35.7,27,66.8,50.5,66.8,50.5l73.2-54.8
		l0.2-0.1C361.8,233.4,373.7,191.7,359.7,154.8z"/>
	<path class="st2" d="M123.2,312.2l36,27.2l21.9,16.6c5.3,4,12.6,4,17.8,0l21.9-16.6l36-27.2c0,0-31.1-23.6-66.9-50.5
		C154.3,288.7,123.2,312.2,123.2,312.2z"/>
	<path class="st1" d="M85.1,182.4c-19-14.3-40.9-24.2-64.2-28.9l-0.5,1.3c-14.1,36.9-2.1,78.7,29.4,102.5l0.2,0.1l0.4,0.3l72.8,54.5
		c0,0,31.1-23.5,66.8-50.5L85.1,182.4z"/>
</g>
</svg>
